<?xml version="1.0" encoding="UTF-8"?>
<svg id="Layer_2" data-name="Layer 2" xmlns="http://www.w3.org/2000/svg" viewBox="0 0 200 50">
  <defs>
    <style>
      .cls-1 {
        fill: #e6e6e6;
      }
    </style>
  </defs>
  <g id="Layer_1-2" data-name="Layer 1">
    <g>
      <path class="cls-1" d="m5,49c-2.21,0-4-1.79-4-4V6C1,3.24,3.24,1,6,1h169c13.23,0,24,10.77,24,24s-10.77,24-24,24H5Z"/>
      <path d="m175,2c12.68,0,23,10.32,23,23s-10.32,23-23,23H5c-1.65,0-3-1.35-3-3V6c0-2.21,1.79-4,4-4h169m0-2H6C2.69,0,0,2.69,0,6v39c0,2.76,2.24,5,5,5h170c13.81,0,25-11.19,25-25h0c0-13.81-11.19-25-25-25h0Z"/>
    </g>
  </g>
</svg>